<svg xmlns="http://www.w3.org/2000/svg" viewBox="300 212 44 44" width="44" height="44">
  <path fill="#027ec6" d="M 329.984375 232.425781 C 329.226562 233.183594 328.179688 233.652344 327.023438 233.652344 C 325.867188 233.652344 324.820312 233.183594 324.0625 232.425781 C 323.304688 231.667969 322.835938 230.621094 322.835938 229.464844 C 322.835938 228.308594 323.304688 227.261719 324.0625 226.503906 C 324.820312 225.746094 325.867188 225.277344 327.023438 225.277344 C 328.179688 225.277344 329.226562 225.746094 329.984375 226.503906 C 330.742188 227.261719 331.210938 228.308594 331.210938 229.464844 C 331.210938 230.621094 330.742188 231.667969 329.984375 232.425781 " fill-opacity="1" fill-rule="nonzero"/>
  <path fill="#027ec6" d="M 329.308594 233.679688 C 330.488281 234.171875 331.558594 235.035156 332.457031 236.179688 C 333.894531 238.019531 334.898438 240.585938 335.195312 243.488281 L 335.242188 243.933594 L 318.804688 243.933594 L 318.851562 243.488281 C 319.152344 240.585938 320.152344 238.019531 321.59375 236.179688 C 322.492188 235.035156 323.558594 234.171875 324.738281 233.679688 C 325.433594 234.054688 326.214844 234.257812 327.023438 234.257812 C 327.832031 234.257812 328.617188 234.054688 329.308594 233.679688 " fill-opacity="1" fill-rule="nonzero"/>
  <path fill="#027ec6" d="M 318.449219 234.722656 C 317.832031 235.34375 316.976562 235.726562 316.03125 235.726562 C 315.085938 235.726562 314.230469 235.34375 313.609375 234.722656 C 312.992188 234.105469 312.609375 233.25 312.609375 232.304688 C 312.609375 231.359375 312.992188 230.503906 313.609375 229.882812 C 314.230469 229.265625 315.085938 228.882812 316.03125 228.882812 C 316.976562 228.882812 317.832031 229.265625 318.449219 229.882812 C 319.070312 230.503906 319.453125 231.359375 319.453125 232.304688 C 319.453125 233.25 319.070312 234.105469 318.449219 234.722656 " fill-opacity="1" fill-rule="nonzero"/>
  <path fill="#027ec6" d="M 318.167969 235.71875 C 318.363281 235.8125 318.550781 235.921875 318.738281 236.039062 C 319.242188 236.367188 319.710938 236.777344 320.140625 237.269531 C 319.074219 239.140625 318.46875 241.316406 318.25 243.425781 L 318.199219 243.933594 L 309.382812 243.933594 L 309.429688 243.488281 C 309.667969 241.15625 310.472656 239.09375 311.632812 237.613281 C 312.285156 236.78125 313.050781 236.132812 313.894531 235.71875 C 314.527344 236.117188 315.265625 236.332031 316.03125 236.332031 C 316.796875 236.332031 317.53125 236.117188 318.167969 235.71875 " fill-opacity="1" fill-rule="nonzero"/>
  <path fill="#027ec6" d="M 322.3125 212.71875 C 334.398438 212.71875 344.199219 222.519531 344.199219 234.605469 C 344.199219 246.691406 334.398438 256.492188 322.3125 256.492188 C 310.222656 256.492188 300.425781 246.691406 300.425781 234.605469 C 300.425781 222.519531 310.222656 212.71875 322.3125 212.71875 Z M 322.3125 215.144531 C 311.5625 215.144531 302.851562 223.855469 302.851562 234.605469 C 302.851562 245.355469 311.5625 254.066406 322.3125 254.066406 C 333.058594 254.066406 341.773438 245.355469 341.773438 234.605469 C 341.773438 223.855469 333.058594 215.144531 322.3125 215.144531 " fill-opacity="1" fill-rule="evenodd"/>
  </svg>